# xmcd
#
# Track frame offsets:
#	150
#	19781
#	80067
#	179684
#	215898
#	231082
#
# Disc length: 3344 seconds
#
# Revision: 0
# Processed by: cddbd v1.5.2PL0 Copyright (c) Steve Scherf et al.
# Submitted via: EZCDAudioConverter 1.3.4.1
#
DISCID=530d0e06
DTITLE=Tangerine Dream - Alpha Centauri
DYEAR=1971
DGENRE=
TTITLE0=Sunrise In The Third System
TTITLE1=Fly And Collision Of Comas Sola
TTITLE2=Alpha Centauri
TTITLE3=Oszillator Planet Concert
TTITLE4=Ultima Thule (Part 1)
TTITLE5=Ultima Thule (Part 2)
EXTD=
EXTT0=
EXTT1=
EXTT2=
EXTT3=
EXTT4=
EXTT5=
PLAYORDER=
